<?xml version="1.0" encoding="UTF-8"?>
<svg xmlns="http://www.w3.org/2000/svg" viewBox="210 262 418 78">
  <!-- Generator: Adobe Illustrator 30.2.1, SVG Export Plug-In . SVG Version: 2.1.1 Build 1)  -->
  <defs>
    <style>
      .st0 {
        fill: #231815;
      }
    </style>
  </defs>
  <path class="st0" d="M217.43,329.4c-.46.28-.74.28-1.1.19l-1.29-.46c-.37-.09-.46-.28-.37-.73.28-1.29.28-8.93.28-15.83v-34.34c0-6.17-1.19-7.27-4.05-8.1l-1.29-.37c-1.01-.28-1.19-.46-1.19-.74v-1.1c0-.28.18-.65,1.01-.92,4.61-1.28,10.4-3.59,14-5.24,1.56-.83,2.3-1.38,3.22-1.38s1.1.64,1.1,1.56c0,.74-.65,11.23-.74,20.25l-.19,10.49c3.32-3.31,7.73-4.41,12.33-4.41,5.99,0,10.68,3.96,13.07,7.82,1.57,2.48,2.67,5.89,2.67,11.87,0,9.66-9.2,21.54-21.08,21.54-6.07,0-9.57-1.1-12.61-2.39l-3.77,2.3ZM226.92,308.6c0,7.64-.1,11.04,1.1,13.44,1.29,2.39,2.85,3.96,5.34,3.96,2.67,0,5.89-.92,7.64-4.79,1.93-4.24,1.48-6.54,1.48-10.22,0-12.15-5.06-16.2-9.85-16.2-1.66,0-3.86.55-5.7,1.75v12.06Z"/>
  <path class="st0" d="M277.05,321.21c0,2.86.92,3.77,2.85,3.77h3.77c.55,0,.65.28.65.83v1.84c0,.55-.1.83-.46.83-.55,0-4.79-.28-13.07-.28-7.08,0-10.95.28-11.51.28-.37,0-.55-.19-.55-.92v-1.75c0-.64.19-.83,1.01-.83h2.67c1.38,0,2.21-.55,2.39-2.21.18-2.58.18-5.8.18-10.4v-7.64c0-3.95-.92-5.61-3.68-7.17l-1.57-.92c-.55-.28-.74-.46-.74-.83v-.83c0-.37.19-.55.74-.74l12.89-5.61c.55-.18.92-.37,1.48-.37.64,0,1.01.55,1.1,1.1l.83,7.18h.64c2.86-6.08,6.9-8.84,10.95-8.84,2.76,0,4.88,2.12,4.88,5.34,0,2.48-2.85,5.24-5.89,5.24-1.29,0-2.48-.28-3.31-.83-.74-.46-1.57-.64-2.3-.64-.92,0-1.84.46-2.39,1.66-1.19,2.48-1.56,4.24-1.56,5.43v17.31Z"/>
  <path class="st0" d="M306.03,305.28v2.49c0,9.57,5.43,14.27,12.15,14.27,4.51,0,8.19-2.12,10.04-5.06.19-.46.55-.55.92-.28l1.57.83c.37.19.65.65-.19,2.21-1.66,3.41-7.64,9.76-16.29,9.76-5.89,0-10.77-1.01-13.81-4.33-4.7-5.06-6.26-8.66-6.35-15.83,0-2.58,0-7.46,4.15-13.53,3.31-4.88,8.93-7.55,16.02-7.55,14.91,0,15.73,14.27,15.73,15.74,0,1.19-.83,1.28-2.85,1.28h-21.08ZM314.95,301.78c2.03,0,2.95-.46,2.95-1.84,0-4.05-1.66-8-4.51-8-4.33,0-6.62,3.4-7.27,9.84h8.84Z"/>
  <path class="st0" d="M332.05,290c0-.46.09-.73.55-.73,1.29,0,3.13.28,10.95.28,4.6,0,6.81-.28,8.19-.28.55,0,.74.18.74.73v2.03c0,.46-.09.74-.74.74h-1.19c-.83,0-1.2.83-.83,2.12l6.26,19.05h.55l5.61-14.36c.46-1.29.1-4.24-.83-5.43-.55-.74-1.57-.83-2.39-.83h-.64c-.55,0-.74-.28-.74-.74v-2.03c0-.55.28-.73.83-.73.74,0,3.68.28,9.48.28,5.33,0,7.36-.28,8.1-.28.64,0,.83.18.83.55v2.02c0,.46-.09.92-.55.92h-1.29c-.74,0-1.57.92-1.19,2.02l6.53,18.13h.37l4.97-13.99c1.75-4.79.46-6.72-2.03-6.72h-1.28c-.46,0-.56-.28-.56-.74v-2.12c0-.46.28-.64.65-.64.55,0,3.31.28,8.46.28,3.96,0,5.61-.28,6.73-.28.46,0,.64.28.64.83v1.93c0,.46-.19.74-.64.74h-.92c-1.47,0-3.13.55-3.77,1.93-.74,1.57-12.7,30.47-14.18,33.69-.46,1.01-1.38,1.19-2.12,1.19-1.01,0-1.38-.64-2.02-2.21l-9.3-23.65h-.55l-10.31,24.39c-.46,1.01-1.28,1.47-2.21,1.47s-1.38-.74-1.84-1.84l-13.35-32.49c-.73-1.84-2.12-2.48-3.22-2.48h-1.1c-.55,0-.64-.28-.64-.83v-1.94Z"/>
  <path class="st0" d="M417.34,321.21c0,2.76.55,3.77,1.38,3.77h1.84c.46,0,.74.19.74.74v1.75c0,.65-.09,1.01-.64,1.01-.74,0-4.97-.28-10.4-.28-6.44,0-9.94.28-10.77.28-.37,0-.64-.28-.64-.92v-1.84c0-.65.37-.74,1.38-.74h1.48c1.47,0,2.85-.37,3.13-1.57.46-1.66.46-3.31.46-6.08l-.19-38.29c0-4.6-1.19-7.27-4.33-8.46l-1.66-.55c-.55-.28-.74-.55-.74-.83v-1.2c0-.37.28-.74,1.57-1.1,5.06-1.47,8.37-2.95,13.9-5.61,1.2-.55,1.93-.92,2.86-.92.83,0,1.01.73.83,2.3s-.28,20.25-.28,25.68v5.53h.64c2.21-3.5,6.72-5.61,11.78-5.61,4.15,0,6.54,1.19,9.39,3.59,4.33,3.59,3.96,8.19,3.96,14.09v5.7c0,4.6-.19,10.22-.19,11.97,0,1.29,1.84,1.38,2.95,1.38h1.75c.74,0,1.01.19,1.01.64v1.94c0,.55-.19.92-.74.92-.64,0-3.59-.28-10.04-.28s-9.66.28-10.49.28c-.64,0-.83-.28-.83-1.01v-1.75c0-.46.1-.74.65-.74h1.19c.83,0,2.03-.46,2.21-1.75.1-1.28.28-6.17.28-8.93v-5.61c0-4.51.28-10.95-2.12-13.35-1.28-1.29-2.39-1.75-4.33-1.75s-4.05,1.66-5.43,3.22c-.74.92-1.57,2.12-1.57,4.51v19.88Z"/>
  <path class="st0" d="M454.68,322.77c-3.5-3.87-4.88-8.75-4.88-14.55,0-4.14,2.3-10.95,7.92-15.28,4.69-3.68,9.39-4.69,13.71-4.69,6.35,0,10.68,1.93,14.82,5.79,4.51,4.06,6.35,9.02,6.35,14.64s-2.3,10.49-5.89,14.36c-4.41,4.6-9.75,6.44-16.02,6.44-6.72,0-11.32-1.38-16.01-6.72ZM478.61,308.05c0-10.68-3.68-15.93-7.73-15.93-2.3,0-3.77.65-4.97,2.49-1.84,2.85-3.04,6.81-3.04,14.27,0,5.34.46,8.84,2.3,12.8,1.19,2.48,2.67,3.95,6.07,3.95,5.06,0,7.37-7.45,7.37-17.58Z"/>
  <path class="st0" d="M530.59,329.12c-.55.19-1.19.37-2.02.37-.92,0-1.48-.46-1.57-1.1l-.55-4.97h-.55c-1.84,3.22-7.18,6.08-12.15,6.08-3.68,0-6.44,0-9.66-4.24-3.86-5.15-3.5-8.1-3.5-16.02l.09-4.05c0-3.5,0-7.18-.09-9.2-.09-2.21-2.03-3.04-3.13-3.22-1.57-.28-2.02-.19-2.02-.65v-1.84c0-.55.18-.73,1.01-.73h13.44c.55,0,.92-.1,1.29-.19.37,0,.73-.09,1.01-.09.65,0,1.1.46,1.01,1.1-.09.83-.37,5.15-.37,12.42v4.97c0,3.68-.55,10.58,1.75,14.18,1.38,2.12,2.86,1.93,4.51,1.93,1.57,0,3.59-1.2,4.97-2.95.83-.92,1.47-2.39,1.47-3.32l-.09-21.63c0-2.3-1.66-3.04-3.96-3.22-1.1-.1-1.57-.19-1.57-.65v-1.75c0-.74.19-.83,1.1-.83h13.72c.64,0,1.1-.1,1.56-.19.46,0,.83-.09,1.11-.09.55,0,.92.46.83.92-.1.83-.55,3.22-.55,12.52v6.81c0,4.42,0,8.93.18,10.59.28,2.85,1.29,3.22,1.66,3.22.56,0,1.94,0,3.04-.28.74-.19,1.01,0,1.1.37l.28,1.75c.09.46-.09.64-.46.73l-12.89,3.22Z"/>
  <path class="st0" d="M575.76,298.75c.09.46,0,.64-.37.83l-1.66.74c-.28.19-.55.09-.92-.28l-5.16-5.53c-1.19-1.19-2.95-2.67-5.7-2.67s-5.43,1.84-5.43,4.97c.18,3.22,1.29,4.14,8.1,5.98,4.51,1.2,6.72,1.84,9.48,4.79,2.39,2.39,2.95,4.6,2.95,7.82,0,8.19-6.44,14.09-16.47,14.09-5.15,0-9.66-1.84-10.77-2.67-.37-.28-.46-.65-.55-1.2l-1.2-8.84c0-.46.28-.64.65-.73l1.66-.46c.28-.09.46,0,.64.37l3.68,5.44c1.66,2.39,3.77,4.69,8.01,4.69,3.4,0,5.43-2.39,5.43-5.61,0-3.68-2.67-4.88-8.65-6.72-6.54-1.93-11.23-5.06-11.23-11.69,0-4.33,1.29-7.91,4.79-10.49,3.68-2.67,6.26-3.31,10.12-3.31,4.97,0,8.01,1.1,9.67,1.93,1.38.64,1.56,1.1,1.66,1.75l1.29,6.81Z"/>
  <path class="st0" d="M595.62,305.28v2.49c0,9.57,5.43,14.27,12.15,14.27,4.51,0,8.19-2.12,10.04-5.06.19-.46.55-.55.92-.28l1.57.83c.37.19.65.65-.19,2.21-1.66,3.41-7.64,9.76-16.29,9.76-5.89,0-10.77-1.01-13.81-4.33-4.7-5.06-6.26-8.66-6.35-15.83,0-2.58,0-7.46,4.15-13.53,3.31-4.88,8.93-7.55,16.02-7.55,14.91,0,15.73,14.27,15.73,15.74,0,1.19-.83,1.28-2.85,1.28h-21.08ZM604.54,301.78c2.03,0,2.95-.46,2.95-1.84,0-4.05-1.66-8-4.51-8-4.33,0-6.62,3.4-7.27,9.84h8.84Z"/>
</svg>